<svg width="36" height="36" viewBox="0 0 36 36" fill="none" xmlns="http://www.w3.org/2000/svg">
<path d="M30 17H19V6C19 5.73478 18.8947 5.48043 18.7072 5.29289C18.5196 5.10536 18.2653 5 18 5C17.7348 5 17.4805 5.10536 17.2929 5.29289C17.1054 5.48043 17 5.73478 17 6V17H6.00004C5.73483 17 5.48047 17.1054 5.29294 17.2929C5.1054 17.4804 5.00004 17.7348 5.00004 18C4.99511 18.13 5.01809 18.2595 5.06744 18.3798C5.11679 18.5001 5.19136 18.6085 5.28612 18.6976C5.38089 18.7867 5.49364 18.8544 5.6168 18.8962C5.73995 18.938 5.87063 18.953 6.00004 18.94H17V30C17 30.2652 17.1054 30.5196 17.2929 30.7071C17.4805 30.8946 17.7348 31 18 31C18.2653 31 18.5196 30.8946 18.7072 30.7071C18.8947 30.5196 19 30.2652 19 30V19H30C30.2653 19 30.5196 18.8946 30.7072 18.7071C30.8947 18.5196 31 18.2652 31 18C31 17.7348 30.8947 17.4804 30.7072 17.2929C30.5196 17.1054 30.2653 17 30 17Z" fill="#3BAC88"/>
</svg>
